<svg width="27" height="27" viewBox="0 0 27 27" fill="none" xmlns="http://www.w3.org/2000/svg">
<path d="M25.7109 27C25.3643 27 25.0465 26.8622 24.7864 26.6143L17.9109 19.8918C17.4198 19.396 17.4198 18.6244 17.9397 18.1561C18.4596 17.6878 19.2687 17.6877 19.7597 18.1836L26.6352 24.9336C27.1263 25.4294 27.1263 26.201 26.6064 26.6693C26.3753 26.8898 26.0287 27 25.7109 27Z" fill="white"/>
<path d="M11.7577 22.2061C5.25783 22.2061 0.000115622 17.2194 0.000115622 11.1031C-0.028499 4.98673 5.25783 0 11.7577 0C18.2577 0 23.5154 4.98673 23.5154 11.1031C23.5154 17.2194 18.2288 22.2061 11.7577 22.2061ZM11.7577 2.45204C6.67342 2.45204 2.54231 6.33659 2.54231 11.1031C2.54231 15.8693 6.67326 19.7541 11.7577 19.7541C16.8132 19.7541 20.9443 15.8693 20.9443 11.1031C20.9445 6.33659 16.8133 2.45204 11.7577 2.45204Z" fill="white"/>
</svg>
